<?xml version="1.0" encoding="utf-8"?>
<!-- generated at drububu.com  -->
<!DOCTYPE svg PUBLIC "-//W3C//DTD SVG 1.1//EN" "http://www.w3.org/Graphics/SVG/1.1/DTD/svg11.dtd">
<svg version="1.1" preserveAspectRatio="xMinYMin meet" xmlns="http://www.w3.org/2000/svg" xmlns:xlink="http://www.w3.org/1999/xlink" x="0px" y="0px" width="32px" height="32px" viewBox="0 0 32 32">
<path d="M0 0h32v32h-32v-32z" fill="rgb(0,0,0)"/>
<path d="M7 5h4v1h-3v1h-2v1h-2v3h-1v10h1v3h2v1h2v1h3v1h-4v-1h-2v-1h-2v-1h-1v-2
	h-1v-12h1v-2h1v-1h2v-1h2v-1z" fill="rgb(0,255,0)"/>
<path d="M21 5h4v1h2v1h2v1h1v2h1v12h-1v2h-1v1h-2v1h-2v1h-4v-1h3v-1h2v-1h2v-3h1
	v-10h-1v-3h-2v-1h-2v-1h-3v-1z" fill="rgb(0,255,0)"/>
<path d="M9 8h3v1h-2v1h-1v1h-1v1h-1v8h1v1h1v1h1v1h2v1h-3v-1h-2v-1h-1v-1h-1v-10
	h1v-1h1v-1h2v-1z" fill="rgb(255,255,0)"/>
<path d="M20 8h3v1h2v1h1v1h1v10h-1v1h-1v1h-2v1h-3v-1h2v-1h1v-1h1v-1h1v-8h-1v-1
	h-1v-1h-1v-1h-2v-1z" fill="rgb(255,255,0)"/>
<path d="M11 11h2v1h-1v2h-1v4h1v2h1v1h-2v-1h-1v-1h-1v-6h1v-1h1v-1z" fill="rgb(255,108,0)"/>
<path d="M19 11h2v1h1v1h1v6h-1v1h-1v1h-2v-1h1v-2h1v-4h-1v-2h-1v-1z" fill="rgb(255,108,0)"/>
<path d="M14 13h4v1h1v4h-1v1h-4v-1h-1v-4h1v-1z" fill="rgb(191,0,0)"/>
</svg>